<svg width="1024" height="1024" xmlns="http://www.w3.org/2000/svg" xmlns:xlink="http://www.w3.org/1999/xlink"><defs><circle id="b" cx="325.5" cy="325.5" r="268.5"/><filter x="-1.3%" y="-.9%" width="102.6%" height="102.6%" filterUnits="objectBoundingBox" id="a"><feOffset dy="2" in="SourceAlpha" result="shadowOffsetOuter1"/><feMorphology radius="14" in="SourceAlpha" result="shadowInner"/><feOffset dy="2" in="shadowInner" result="shadowInner"/><feComposite in="shadowOffsetOuter1" in2="shadowInner" operator="out" result="shadowOffsetOuter1"/><feGaussianBlur stdDeviation="2" in="shadowOffsetOuter1" result="shadowBlurOuter1"/><feColorMatrix values="0 0 0 0 0 0 0 0 0 0 0 0 0 0 0 0 0 0 0.5 0" in="shadowBlurOuter1"/></filter><path d="M8 325.5h633" id="d"/><filter x="-2.2%" y="-190%" width="104.4%" height="560%" filterUnits="objectBoundingBox" id="c"><feMorphology radius="7" operator="dilate" in="SourceAlpha" result="shadowSpreadOuter1"/><feOffset dy="2" in="shadowSpreadOuter1" result="shadowOffsetOuter1"/><feMorphology radius="7" in="SourceAlpha" result="shadowInner"/><feOffset dy="2" in="shadowInner" result="shadowInner"/><feComposite in="shadowOffsetOuter1" in2="shadowInner" operator="out" result="shadowOffsetOuter1"/><feGaussianBlur stdDeviation="2" in="shadowOffsetOuter1" result="shadowBlurOuter1"/><feColorMatrix values="0 0 0 0 0 0 0 0 0 0 0 0 0 0 0 0 0 0 0.5 0" in="shadowBlurOuter1"/></filter><path d="M323 10v627" id="f"/><filter x="-650%" y="-1.9%" width="1400%" height="104.5%" filterUnits="objectBoundingBox" id="e"><feMorphology radius="7" operator="dilate" in="SourceAlpha" result="shadowSpreadOuter1"/><feOffset dy="2" in="shadowSpreadOuter1" result="shadowOffsetOuter1"/><feMorphology radius="7" in="SourceAlpha" result="shadowInner"/><feOffset dy="2" in="shadowInner" result="shadowInner"/><feComposite in="shadowOffsetOuter1" in2="shadowInner" operator="out" result="shadowOffsetOuter1"/><feGaussianBlur stdDeviation="2" in="shadowOffsetOuter1" result="shadowBlurOuter1"/><feColorMatrix values="0 0 0 0 0 0 0 0 0 0 0 0 0 0 0 0 0 0 0.5 0" in="shadowBlurOuter1"/></filter><circle id="h" cx="324.5" cy="324.5" r="324.5"/><filter x="-1.1%" y="-.8%" width="102.2%" height="102.2%" filterUnits="objectBoundingBox" id="g"><feOffset dy="2" in="SourceAlpha" result="shadowOffsetOuter1"/><feMorphology radius="14" in="SourceAlpha" result="shadowInner"/><feOffset dy="2" in="shadowInner" result="shadowInner"/><feComposite in="shadowOffsetOuter1" in2="shadowInner" operator="out" result="shadowOffsetOuter1"/><feGaussianBlur stdDeviation="2" in="shadowOffsetOuter1" result="shadowBlurOuter1"/><feColorMatrix values="0 0 0 0 0 0 0 0 0 0 0 0 0 0 0 0 0 0 0.5 0" in="shadowBlurOuter1"/></filter></defs><g fill="none" fill-rule="evenodd"><path fill="#FFEDCB" d="M0 212h1024v602H0z"/><path d="M512.965 188c74.528 0 143.2 25.075 198.035 67.248L509 521V188.032z" fill="#8C8C8C"/><g transform="translate(189 188)"><use fill="#000" filter="url(#a)" xlink:href="#b"/><circle stroke="#2B2B2B" stroke-width="14" stroke-linejoin="square" cx="325.5" cy="325.5" r="261.5"/></g><g stroke-linecap="square" transform="translate(189 188)"><use fill="#000" filter="url(#c)" xlink:href="#d"/><use stroke="#3C3C3C" stroke-width="14" xlink:href="#d"/></g><g stroke-linecap="square" transform="translate(189 188)"><use fill="#000" filter="url(#e)" xlink:href="#f"/><use stroke="#3C3C3C" stroke-width="14" xlink:href="#f"/></g><text font-family="Fredoka-SemiBold, Fredoka" font-size="400" font-weight="500" fill="#000" transform="translate(189 188)"><tspan x="211" y="468">S</tspan></text><g transform="translate(189 188)"><use fill="#000" filter="url(#g)" xlink:href="#h"/><circle stroke="#0A0A0A" stroke-width="14" stroke-linejoin="square" cx="324.5" cy="324.5" r="317.5"/></g><g fill="#292929" fill-rule="nonzero"><path d="M0 899v-85h1024v170H0v-85zm95.9 39.667c4.9-2.339 5.1-3.688 5.1-36.07 0-32.38-.2-33.73-5.1-36.068-3.7-1.709-44.4-1.799-48.4-.18-5.3 2.159-5.5 3.418-5.5 36.429.1 32.47.2 33.46 5.1 35.889 3.6 1.799 44.9 1.799 48.8 0zm128 0c4.9-2.339 5.1-3.688 5.1-36.07 0-32.38-.2-33.73-5.1-36.068-3.7-1.709-44.4-1.799-48.4-.18-5.3 2.159-5.5 3.418-5.5 36.429.1 32.47.2 33.46 5.1 35.889 3.6 1.799 44.9 1.799 48.8 0zm130 0c4.9-2.339 5.1-3.688 5.1-36.07 0-32.38-.2-33.73-5.1-36.068-3.7-1.709-44.4-1.799-48.4-.18-5.3 2.159-5.5 3.418-5.5 36.429.1 32.47.2 33.46 5.1 35.889 3.6 1.799 44.9 1.799 48.8 0zm128 0c4.9-2.339 5.1-3.688 5.1-36.07 0-32.38-.2-33.73-5.1-36.068-3.7-1.709-44.4-1.799-48.4-.18-5.3 2.159-5.5 3.418-5.5 36.429.1 32.47.2 33.46 5.1 35.889 3.6 1.799 44.9 1.799 48.8 0zm129 0c4.9-2.339 5.1-3.688 5.1-36.07 0-32.38-.2-33.73-5.1-36.068-3.7-1.709-44.4-1.799-48.4-.18-5.3 2.159-5.5 3.418-5.5 36.429.1 32.47.2 33.46 5.1 35.889 3.6 1.799 44.9 1.799 48.8 0zm128 0c4.9-2.339 5.1-3.688 5.1-36.07 0-32.38-.2-33.73-5.1-36.068-3.7-1.709-44.4-1.799-48.4-.18-5.3 2.159-5.5 3.418-5.5 36.429.1 32.47.2 33.46 5.1 35.889 3.6 1.799 44.9 1.799 48.8 0zm129 0c4.9-2.339 5.1-3.688 5.1-36.07 0-32.38-.2-33.73-5.1-36.068-3.7-1.709-44.4-1.799-48.4-.18-5.3 2.159-5.5 3.418-5.5 36.429.1 32.47.2 33.46 5.1 35.889 3.6 1.799 44.9 1.799 48.8 0zm129 0c4.9-2.339 5.1-3.688 5.1-36.07 0-32.38-.2-33.73-5.1-36.068-3.7-1.709-44.4-1.799-48.4-.18-5.3 2.159-5.5 3.418-5.5 36.429.1 32.47.2 33.46 5.1 35.889 3.6 1.799 44.9 1.799 48.8 0zM0 127V42h1024v170H0v-85zm95.9 39.667c4.9-2.339 5.1-3.688 5.1-36.07 0-32.38-.2-33.73-5.1-36.068-3.7-1.709-44.4-1.799-48.4-.18-5.3 2.159-5.5 3.418-5.5 36.429.1 32.47.2 33.46 5.1 35.889 3.6 1.799 44.9 1.799 48.8 0zm128 0c4.9-2.339 5.1-3.688 5.1-36.07 0-32.38-.2-33.73-5.1-36.068-3.7-1.709-44.4-1.799-48.4-.18-5.3 2.159-5.5 3.418-5.5 36.429.1 32.47.2 33.46 5.1 35.889 3.6 1.799 44.9 1.799 48.8 0zm130 0c4.9-2.339 5.1-3.688 5.1-36.07 0-32.38-.2-33.73-5.1-36.068-3.7-1.709-44.4-1.799-48.4-.18-5.3 2.159-5.5 3.418-5.5 36.429.1 32.47.2 33.46 5.1 35.889 3.6 1.799 44.9 1.799 48.8 0zm128 0c4.9-2.339 5.1-3.688 5.1-36.07 0-32.38-.2-33.73-5.1-36.068-3.7-1.709-44.4-1.799-48.4-.18-5.3 2.159-5.5 3.418-5.5 36.429.1 32.47.2 33.46 5.1 35.889 3.6 1.799 44.9 1.799 48.8 0zm129 0c4.9-2.339 5.1-3.688 5.1-36.07 0-32.38-.2-33.73-5.1-36.068-3.7-1.709-44.4-1.799-48.4-.18-5.3 2.159-5.5 3.418-5.5 36.429.1 32.47.2 33.46 5.1 35.889 3.6 1.799 44.9 1.799 48.8 0zm128 0c4.9-2.339 5.1-3.688 5.1-36.07 0-32.38-.2-33.73-5.1-36.068-3.7-1.709-44.4-1.799-48.4-.18-5.3 2.159-5.5 3.418-5.5 36.429.1 32.47.2 33.46 5.1 35.889 3.6 1.799 44.9 1.799 48.8 0zm129 0c4.9-2.339 5.1-3.688 5.1-36.07 0-32.38-.2-33.73-5.1-36.068-3.7-1.709-44.4-1.799-48.4-.18-5.3 2.159-5.5 3.418-5.5 36.429.1 32.47.2 33.46 5.1 35.889 3.6 1.799 44.9 1.799 48.8 0zm129 0c4.9-2.339 5.1-3.688 5.1-36.07 0-32.38-.2-33.73-5.1-36.068-3.7-1.709-44.4-1.799-48.4-.18-5.3 2.159-5.5 3.418-5.5 36.429.1 32.47.2 33.46 5.1 35.889 3.6 1.799 44.9 1.799 48.8 0z"/></g><path d="M1024 212v602H0V212h1024zm-32 22H32c-5.523 0-10 4.477-10 10v538c0 5.523 4.477 10 10 10h960c5.523 0 10-4.477 10-10V244c0-5.523-4.477-10-10-10z" fill="#000"/></g></svg>